<svg width="96" height="27" viewBox="0 0 96 27" fill="none" xmlns="http://www.w3.org/2000/svg">
<path d="M7.69698 13.7999H4.57275V16.4144H7.69698V13.7999Z" fill="#fff"/>
<path d="M13.4533 13.7999H10.2986V16.4144H13.4533V13.7999Z" fill="#fff"/>
<path d="M10.2987 11.1854H7.69702V13.7999H10.2987V11.1854Z" fill="#fff"/>
<path d="M6.37315 11.8347C7.28524 9.33561 8.19894 6.83656 9.11104 4.33911L11.687 11.8347C12.0205 12.7019 12.3555 13.5691 12.6889 14.4363L14.6317 20.1782H17.998L10.8663 0.5224H7.59142L0.19043 20.1782H3.37556C4.06645 18.2642 4.75894 16.3503 5.44982 14.4363C5.7576 13.5691 6.06377 12.7019 6.37154 11.8347H6.37315Z" fill="#fff"/>
<path d="M27.6078 12.8221C27.6078 14.1493 27.4507 15.2025 27.1429 15.9543C26.5867 17.3265 25.5688 17.9949 24.0267 17.9949C22.9768 17.9949 22.2843 17.6278 21.9092 16.876C21.7008 16.4608 21.5966 15.9094 21.5966 15.2362V5.71603H18.708V15.459C18.708 16.6869 18.918 17.6871 19.3252 18.4341C20.0898 19.8431 21.5309 20.5565 23.6099 20.5565C24.9404 20.5565 26.0898 20.1685 27.0259 19.4071C27.292 19.1907 27.5357 18.9471 27.7537 18.6762L27.7344 20.1798H30.4435V5.71764H27.6078V12.8253V12.8221Z" fill="#fff"/>
<path d="M38.2306 0.261115C38.0671 0.251497 37.91 0.248291 37.761 0.248291C36.1179 0.248291 34.983 0.687509 34.3899 1.55472C34.0565 2.05165 33.8753 2.79223 33.8385 3.83096V5.78019H31.894V8.12055H33.8385V20.1766H36.6469V8.12055H38.9969V5.78019H36.6741C36.6822 4.12431 36.7832 3.50876 36.8665 3.28434C36.9659 3.01985 37.3185 2.8868 37.9181 2.8868C38.011 2.8868 38.1088 2.89001 38.2146 2.89322C38.322 2.89802 38.4951 2.90764 38.7356 2.92528L38.9969 2.94291V0.318822L38.7741 0.299587C38.5705 0.281954 38.3893 0.26913 38.2306 0.261115Z" fill="#fff"/>
<path d="M49.3024 7.18921C48.9738 6.83014 48.6452 6.5384 48.323 6.31879C47.4686 5.75454 46.4571 5.46921 45.3174 5.46921C43.6343 5.46921 42.1772 6.16009 40.991 7.52263C39.8128 8.87715 39.2148 10.7751 39.2148 13.1635C39.2148 15.6995 39.8128 17.5541 40.9942 18.6714C42.1724 19.7839 43.5653 20.3481 45.1347 20.3481C46.2568 20.3481 47.1785 20.1638 47.871 19.7983C48.3695 19.537 48.8183 19.1747 49.2127 18.7163C49.195 20.2135 49.0492 21.2827 48.7767 21.8998C48.2557 23.0844 47.1721 23.6599 45.4617 23.6599C44.3941 23.6599 43.6086 23.4194 43.1293 22.9482C42.8264 22.6468 42.6212 22.2028 42.5186 21.6273L42.4833 21.4285H39.6268L39.6477 21.693C39.7759 23.1998 40.3914 24.3251 41.4799 25.0385C42.5426 25.7358 43.8635 26.0916 45.4104 26.0916C48.2012 26.0916 50.1312 25.0897 51.1475 23.1133C51.6861 22.0553 51.957 20.6062 51.957 18.8012V5.84751H49.3056V7.19081L49.3024 7.18921ZM48.7494 15.8021C48.0986 17.2415 47.0054 17.9436 45.4088 17.9436C44.4005 17.9436 43.6199 17.5701 43.0251 16.8039C42.4224 16.0297 42.1163 14.8707 42.1163 13.3591C42.1163 12.0559 42.2733 10.9931 42.5811 10.198C43.155 8.7393 44.1921 8.02918 45.7486 8.02918C46.789 8.02918 47.6193 8.41229 48.2894 9.19615C48.961 9.98321 49.3008 11.2239 49.3008 12.8878C49.3008 13.9971 49.1149 14.9765 48.7478 15.8021H48.7494Z" fill="#fff"/>
<path d="M66.8374 18.0815C66.7156 18.0927 66.605 18.0991 66.5104 18.0991C66.2844 18.0991 66.1273 18.0574 66.0792 17.9837C66.0055 17.8779 65.9702 17.7256 65.9702 17.5332V9.48305C65.9702 8.07723 65.4172 7.02407 64.3271 6.35242C63.266 5.70482 61.8746 5.37781 60.193 5.37781C58.7359 5.37781 57.4343 5.73047 56.3266 6.42616C55.1837 7.1427 54.581 8.41867 54.5361 10.222L54.5297 10.4721H57.1858L57.2115 10.2573C57.2932 9.58244 57.4648 9.07429 57.7245 8.74568C58.1861 8.15097 58.9988 7.84801 60.1418 7.84801C61.1516 7.84801 61.9307 8.01632 62.4597 8.35135C62.9582 8.66713 63.2002 9.17047 63.2002 9.88861C63.2002 10.2397 63.157 10.5042 63.0672 10.6837C62.9213 10.9899 62.6296 11.1678 62.1743 11.2255L58.4298 11.6952C57.072 11.8651 55.958 12.33 55.1148 13.0721C54.2556 13.8287 53.8196 14.906 53.8196 16.2685C53.8196 17.5156 54.2588 18.5688 55.1292 19.4007C55.9932 20.2279 57.1185 20.6478 58.473 20.6478C59.5855 20.6478 60.621 20.4058 61.546 19.9297C62.2785 19.553 62.8845 19.117 63.3509 18.6281C63.4359 18.9823 63.5481 19.2725 63.6956 19.5049C64.1059 20.1525 64.7696 20.4795 65.6624 20.4795C66.0055 20.4795 66.2732 20.4667 66.4784 20.4379C66.6819 20.4106 66.9673 20.3433 67.3472 20.2359L67.5219 20.1862V17.9773L67.2366 18.027C67.0955 18.0526 66.9608 18.0702 66.8374 18.0831V18.0815ZM63.1345 14.7152C63.1345 16.0713 62.5382 17.0203 61.3119 17.6166C60.5762 17.9821 59.8035 18.1648 59.0181 18.1648C58.3897 18.1648 57.8639 17.9917 57.4071 17.631C56.9694 17.2832 56.7562 16.8215 56.7562 16.2172C56.7562 15.4077 57.0688 14.837 57.7164 14.4699C58.1124 14.2423 58.7279 14.074 59.5438 13.965L60.9641 13.7823C61.4081 13.7294 61.8698 13.6396 62.3298 13.5146C62.6296 13.4344 62.8973 13.3398 63.1329 13.2308V14.7152H63.1345Z" fill="#fff   "/>
<path d="M75.3044 5.35056C74.4356 5.35056 73.618 5.53491 72.8727 5.90359C72.3212 6.1761 71.8227 6.54318 71.3835 6.99843V0.45665H68.6135V20.1782H71.2665V18.8461C71.6191 19.2597 71.9574 19.5819 72.2779 19.8063C73.049 20.3465 73.998 20.6206 75.1072 20.6206C77.0757 20.6206 78.6402 19.8496 79.7543 18.3283C80.8507 16.8311 81.4053 14.93 81.4053 12.6778C81.4053 10.2958 80.8379 8.46036 79.719 7.22285C78.5921 5.97894 77.1077 5.34896 75.3044 5.34896V5.35056ZM77.6095 16.6596C77.0228 17.6022 76.1556 18.059 74.9662 18.059C73.3728 18.059 72.3164 17.3537 71.7345 15.9014C71.4171 15.116 71.2568 14.0724 71.2568 12.7948C71.2568 11.0524 71.6384 9.79404 72.3902 9.05346C73.1548 8.30166 74.0188 7.93618 75.0319 7.93618C76.1796 7.93618 77.0244 8.3738 77.6143 9.27467C78.2154 10.1964 78.5216 11.3794 78.5216 12.7964C78.5216 14.3962 78.2154 15.6946 77.6111 16.6596H77.6095Z" fill="#fff"/>
<path d="M95.5905 13.6973C95.5905 12.2787 95.5183 11.2239 95.3789 10.5763C95.217 9.6081 94.8868 8.7473 94.4027 8.01634C93.8929 7.2437 93.1459 6.60731 92.1809 6.12482C91.2191 5.64552 90.2141 5.40187 89.1881 5.40187C87.1572 5.40187 85.4885 6.13604 84.2285 7.58674C82.9766 9.02462 82.3418 10.9193 82.3418 13.2132C82.3418 15.5071 82.975 17.3922 84.2237 18.6986C85.474 20.0099 87.0209 20.6735 88.8227 20.6735C89.5504 20.6735 90.2157 20.5998 90.7943 20.4571C91.886 20.2038 92.8173 19.7101 93.5547 18.9872C93.9971 18.572 94.4027 18.0318 94.7569 17.3794C95.1144 16.7238 95.3276 16.1178 95.3933 15.576L95.4254 15.3035H92.657L92.6073 15.4814C92.4454 16.0601 92.1633 16.5763 91.7738 17.0155C91.0861 17.7785 90.1836 18.1472 89.0182 18.1472C87.7759 18.1472 86.8895 17.7593 86.3044 16.961C85.7481 16.1996 85.4307 15.1833 85.357 13.9362H95.5889V13.6925L95.5905 13.6973ZM85.4275 11.5878C85.5109 10.5667 85.8732 9.70428 86.508 9.02942C87.1972 8.29526 88.0276 7.93779 89.0439 7.93779C90.4673 7.93779 91.4532 8.45235 92.0559 9.51032C92.354 10.0345 92.5592 10.7318 92.6618 11.5862H85.4259L85.4275 11.5878Z" fill="#fff"/>
</svg>
