<svg width="25" height="24" viewBox="0 0 25 24" fill="none" xmlns="http://www.w3.org/2000/svg">
<path d="M19.9093 9.39751L12.4093 16.8975C12.3039 17.0028 12.1609 17.062 12.0118 17.062C11.8628 17.062 11.7198 17.0028 11.6143 16.8975L4.11435 9.39751C4.01499 9.29088 3.9609 9.14984 3.96347 9.00412C3.96604 8.85839 4.02507 8.71935 4.12813 8.61629C4.23119 8.51323 4.37023 8.4542 4.51596 8.45163C4.66168 8.44905 4.80272 8.50315 4.90935 8.60251L12.0118 15.7041L19.1143 8.60251C19.221 8.50315 19.362 8.44905 19.5077 8.45163C19.6535 8.4542 19.7925 8.51323 19.8956 8.61629C19.9986 8.71935 20.0577 8.85839 20.0602 9.00412C20.0628 9.14984 20.0087 9.29088 19.9093 9.39751Z" fill="#111011"/>
</svg>
