<svg width="24" height="24" viewBox="0 0 24 24" fill="none" xmlns="http://www.w3.org/2000/svg">
<path d="M12 0.0314941C9.66371 0.0314941 7.37989 0.724285 5.43733 2.02226C3.49478 3.32023 1.98074 5.16509 1.08668 7.32355C0.192618 9.482 -0.0413087 11.8571 0.414479 14.1485C0.870267 16.4399 1.9953 18.5447 3.64731 20.1967C5.29931 21.8487 7.4041 22.9737 9.6955 23.4295C11.9869 23.8853 14.362 23.6514 16.5205 22.7573C18.6789 21.8633 20.5238 20.3492 21.8217 18.4067C23.1197 16.4641 23.8125 14.1803 23.8125 11.844C23.809 8.71219 22.5634 5.70965 20.3489 3.49513C18.1343 1.28061 15.1318 0.0349681 12 0.0314941ZM13.3125 20.9363V14.9065H15.5C15.8481 14.9065 16.1819 14.7682 16.4281 14.5221C16.6742 14.2759 16.8125 13.9421 16.8125 13.594C16.8125 13.2459 16.6742 12.9121 16.4281 12.6659C16.1819 12.4198 15.8481 12.2815 15.5 12.2815H13.3125V10.094C13.3125 9.7459 13.4508 9.41206 13.6969 9.16592C13.9431 8.91978 14.2769 8.78149 14.625 8.78149H16.375C16.7231 8.78149 17.0569 8.64321 17.3031 8.39707C17.5492 8.15093 17.6875 7.81709 17.6875 7.46899C17.6875 7.1209 17.5492 6.78706 17.3031 6.54092C17.0569 6.29478 16.7231 6.15649 16.375 6.15649H14.625C13.5807 6.15649 12.5792 6.57134 11.8408 7.30976C11.1023 8.04819 10.6875 9.0497 10.6875 10.094V12.2815H8.5C8.15191 12.2815 7.81807 12.4198 7.57193 12.6659C7.32579 12.9121 7.18751 13.2459 7.1875 13.594C7.18751 13.9421 7.32579 14.2759 7.57193 14.5221C7.81807 14.7682 8.15191 14.9065 8.5 14.9065H10.6875V20.9363C8.38855 20.6045 6.3006 19.4142 4.84387 17.605C3.38714 15.7958 2.66975 13.502 2.83609 11.1851C3.00243 8.86831 4.04015 6.70049 5.7404 5.11793C7.44065 3.53538 9.67722 2.65557 12 2.65557C14.3228 2.65557 16.5594 3.53538 18.2596 5.11793C19.9599 6.70049 20.9976 8.86831 21.1639 11.1851C21.3303 13.502 20.6129 15.7958 19.1561 17.605C17.6994 19.4142 15.6115 20.6045 13.3125 20.9363Z" fill="white"/>
</svg>
