<svg width="24" height="24" viewBox="0 0 24 24" fill="none" xmlns="http://www.w3.org/2000/svg">
<path d="M21.625 0.0314941H2.375C1.79484 0.0314941 1.23844 0.261962 0.828204 0.672198C0.417968 1.08243 0.1875 1.63883 0.1875 2.21899V21.469C0.1875 22.0492 0.417968 22.6056 0.828204 23.0158C1.23844 23.426 1.79484 23.6565 2.375 23.6565H21.625C22.2052 23.6565 22.7616 23.426 23.1718 23.0158C23.582 22.6056 23.8125 22.0492 23.8125 21.469V2.21899C23.8125 1.63883 23.582 1.08243 23.1718 0.672198C22.7616 0.261962 22.2052 0.0314941 21.625 0.0314941ZM21.1875 21.0315H2.8125V2.65649H21.1875V21.0315ZM10.25 17.094V10.969C10.2503 10.6962 10.3355 10.4303 10.4938 10.2082C10.6522 9.98616 10.8758 9.81892 11.1336 9.72979C11.3914 9.64065 11.6705 9.63404 11.9322 9.71088C12.1939 9.78772 12.4252 9.94418 12.5939 10.1585C13.2606 9.8091 14.0061 9.63757 14.7584 9.66052C15.5107 9.68346 16.2444 9.90012 16.8885 10.2895C17.5326 10.6789 18.0654 11.2279 18.4353 11.8835C18.8051 12.539 18.9997 13.2788 19 14.0315V17.094C19 17.4421 18.8617 17.7759 18.6156 18.0221C18.3694 18.2682 18.0356 18.4065 17.6875 18.4065C17.3394 18.4065 17.0056 18.2682 16.7594 18.0221C16.5133 17.7759 16.375 17.4421 16.375 17.094V14.0315C16.375 13.5674 16.1906 13.1222 15.8624 12.7941C15.5342 12.4659 15.0891 12.2815 14.625 12.2815C14.1609 12.2815 13.7158 12.4659 13.3876 12.7941C13.0594 13.1222 12.875 13.5674 12.875 14.0315V17.094C12.875 17.4421 12.7367 17.7759 12.4906 18.0221C12.2444 18.2682 11.9106 18.4065 11.5625 18.4065C11.2144 18.4065 10.8806 18.2682 10.6344 18.0221C10.3883 17.7759 10.25 17.4421 10.25 17.094ZM8.5 10.969V17.094C8.5 17.4421 8.36172 17.7759 8.11558 18.0221C7.86944 18.2682 7.5356 18.4065 7.1875 18.4065C6.8394 18.4065 6.50556 18.2682 6.25942 18.0221C6.01328 17.7759 5.875 17.4421 5.875 17.094V10.969C5.875 10.6209 6.01328 10.2871 6.25942 10.0409C6.50556 9.79478 6.8394 9.65649 7.1875 9.65649C7.5356 9.65649 7.86944 9.79478 8.11558 10.0409C8.36172 10.2871 8.5 10.6209 8.5 10.969ZM5.4375 6.59399C5.4375 6.24788 5.54014 5.90953 5.73243 5.62175C5.92472 5.33396 6.19803 5.10966 6.5178 4.9772C6.83757 4.84475 7.18944 4.8101 7.52891 4.87762C7.86837 4.94514 8.18019 5.11182 8.42494 5.35656C8.66968 5.6013 8.83635 5.91312 8.90387 6.25259C8.9714 6.59205 8.93674 6.94392 8.80429 7.26369C8.67184 7.58346 8.44753 7.85677 8.15975 8.04907C7.87196 8.24136 7.53362 8.34399 7.1875 8.34399C6.72337 8.34399 6.27825 8.15962 5.95006 7.83143C5.62187 7.50324 5.4375 7.05812 5.4375 6.59399Z" fill="white"/>
</svg>
