<svg width="25" height="25" viewBox="0 0 25 25" fill="none" xmlns="http://www.w3.org/2000/svg">
<path d="M16.3879 16.3877C16.3879 16.5071 16.3819 16.637 16.373 16.7759C16.367 16.6505 16.364 16.5235 16.364 16.3951V16.3862H16.3879V16.3877Z" fill="#191C3C"/>
<path d="M24.4816 16.3877V24.4127C24.4503 24.4127 24.4204 24.4127 24.3891 24.4127C20.0876 24.4127 16.576 21.028 16.373 16.7759C16.367 16.6505 16.364 16.5235 16.364 16.3951V16.3862H24.4816V16.3877Z" fill="#191C3C"/>
<path d="M24.3887 8.36264C24.3887 12.7865 20.8084 16.3742 16.3875 16.3877H16.3637V16.3966C16.3637 16.5235 16.3666 16.6505 16.3726 16.7774C16.3383 17.3343 16.2397 18.0375 15.9904 18.8139C15.8978 19.1035 15.6843 19.7127 15.3081 20.3696C13.9225 22.7898 11.3127 24.4187 8.32219 24.4127C3.90282 24.4038 0.259826 20.7055 0.313576 16.2862C0.367325 11.9011 3.94015 8.36264 8.33861 8.36264V14.6169C8.33861 15.686 8.90895 16.6743 9.83463 17.2088L12.3952 18.6869C13.2223 18.2047 14.0495 17.7239 14.8766 17.2417C15.7978 16.7057 16.3637 15.7203 16.3637 14.6558V0.337601C20.795 0.337601 24.3887 3.93132 24.3887 8.36264Z" fill="#191C3C"/>
<path d="M16.364 8.36264H0.313965C0.313965 3.93132 3.90769 0.337601 8.339 0.337601C12.7703 0.337601 16.364 3.93132 16.364 8.36264Z" fill="#191C3C"/>
</svg>
