<svg width="27" height="26" viewBox="0 0 27 26" fill="none" xmlns="http://www.w3.org/2000/svg">
<path d="M18.0904 17.3064C22.5739 17.0291 26.1245 13.307 26.1245 8.75288C26.1245 4.01927 22.287 0.180115 17.5518 0.180115V17.324C17.5518 17.324 17.5582 17.324 17.5614 17.324C17.571 22.0496 21.4053 25.8776 26.1325 25.8776V17.3048H18.0888L18.0904 17.3064Z" fill="#AAAAAA"/>
<path d="M17.5536 8.75289V8.88754H7.46601V14.8042C7.46601 16.3863 8.22903 17.8707 9.51462 18.7924C9.52104 18.7972 9.52905 18.802 9.53546 18.8068C10.5405 19.5266 11.5488 20.2479 12.5555 20.9692C13.5493 20.2447 14.5432 19.5185 15.5402 18.794C16.7665 17.9011 17.5071 16.4889 17.5536 14.9773V17.2968C17.5536 17.3112 17.5536 17.3257 17.5536 17.3401V17.4314C17.5536 17.4314 17.552 17.4314 17.552 17.4331C17.5183 19.5714 16.704 21.5191 15.3799 23.0002C13.7401 24.8404 11.318 25.9689 8.63779 25.8632C4.13821 25.6868 0.505847 21.9823 0.411271 17.4811C0.409668 17.4202 0.409668 17.3577 0.409668 17.2968C0.409668 13.0793 3.45374 9.57522 7.46601 8.86029H0.409668C0.409668 4.12667 4.24721 0.289124 8.98083 0.289124C13.7144 0.289124 17.4927 4.06736 17.5504 8.75289H17.5536Z" fill="#05DDE2"/>
<path d="M8.98097 0.289124C13.7114 0.289124 17.5537 4.12988 17.5537 8.86189H0.408203C0.408203 4.13148 4.24896 0.289124 8.98097 0.289124Z" fill="#0075FF"/>
<path d="M17.5566 17.3257V0.181747C22.2903 0.181747 26.1294 4.01929 26.1294 8.75451C26.1294 13.4881 22.2919 17.3273 17.5566 17.3273V17.3257Z" fill="#14B4ED"/>
<path d="M26.1296 17.3257V25.8984C21.3992 25.8984 17.5569 22.0577 17.5569 17.3257H26.1296Z" fill="#0075FF"/>
</svg>
