<svg width="28" height="28" viewBox="0 0 28 28" fill="none" xmlns="http://www.w3.org/2000/svg">
<path d="M19.8691 14.6191L11.1191 23.3691C10.9967 23.4916 10.8407 23.575 10.6709 23.6089C10.5011 23.6427 10.325 23.6253 10.1651 23.5591C10.0051 23.4928 9.86838 23.3805 9.77224 23.2365C9.67611 23.0925 9.62486 22.9232 9.625 22.75V5.25002C9.62486 5.07686 9.67611 4.90755 9.77224 4.76353C9.86838 4.61951 10.0051 4.50726 10.1651 4.44097C10.325 4.37469 10.5011 4.35736 10.6709 4.39118C10.8407 4.425 10.9967 4.50845 11.1191 4.63096L19.8691 13.381C19.9504 13.4622 20.015 13.5587 20.059 13.6649C20.103 13.7712 20.1257 13.885 20.1257 14C20.1257 14.115 20.103 14.2289 20.059 14.3351C20.015 14.4413 19.9504 14.5378 19.8691 14.6191Z" fill="#0075FF"/>
</svg>
