<svg width="24" height="25" viewBox="0 0 24 25" fill="none" xmlns="http://www.w3.org/2000/svg">
<path d="M20.6475 12.8975L13.8975 19.6475C13.7909 19.7469 13.6498 19.801 13.5041 19.7984C13.3584 19.7958 13.2193 19.7368 13.1163 19.6337C13.0132 19.5307 12.9542 19.3916 12.9516 19.2459C12.949 19.1002 13.0031 18.9591 13.1025 18.8525L18.8916 13.0625H3.75C3.60082 13.0625 3.45774 13.0032 3.35225 12.8978C3.24676 12.7923 3.1875 12.6492 3.1875 12.5C3.1875 12.3508 3.24676 12.2077 3.35225 12.1023C3.45774 11.9968 3.60082 11.9375 3.75 11.9375H18.8916L13.1025 6.14751C13.0031 6.04088 12.949 5.89984 12.9516 5.75411C12.9542 5.60839 13.0132 5.46935 13.1163 5.36629C13.2193 5.26323 13.3584 5.2042 13.5041 5.20163C13.6498 5.19905 13.7909 5.25315 13.8975 5.35251L20.6475 12.1025C20.7528 12.208 20.812 12.3509 20.812 12.5C20.812 12.6491 20.7528 12.792 20.6475 12.8975Z" fill="#0075FF"/>
</svg>
    