<svg width="25" height="23" viewBox="0 0 25 23" fill="none" xmlns="http://www.w3.org/2000/svg">
<path d="M24.463 4.21698C24.3637 3.97704 24.1954 3.77197 23.9795 3.6277C23.7636 3.48343 23.5097 3.40645 23.25 3.40651H20.1678C19.6498 2.60911 18.9426 1.95218 18.1093 1.4942C17.2759 1.03621 16.3423 0.791384 15.3914 0.781507C14.6496 0.771546 13.9132 0.910116 13.2257 1.18906C12.5382 1.468 11.9135 1.88167 11.3883 2.40573C10.8482 2.93541 10.4196 3.56776 10.1275 4.26556C9.83539 4.96337 9.68581 5.71254 9.68754 6.46901V6.55432C5.65925 5.28885 2.42722 2.08088 2.39222 2.04479C2.21611 1.86731 1.99298 1.74383 1.74907 1.68887C1.50516 1.63391 1.25062 1.64977 1.01542 1.73456C0.780214 1.81936 0.574123 1.96958 0.421396 2.16753C0.268669 2.36549 0.175661 2.60295 0.153317 2.85198C-0.536839 10.5268 2.84941 14.6415 4.75363 16.3182C3.16879 17.9348 0.937536 18.7934 0.915661 18.8021C0.730144 18.8712 0.562651 18.9813 0.425718 19.1243C0.288786 19.2672 0.185963 19.4393 0.124945 19.6276C0.0639268 19.8159 0.046295 20.0156 0.0733694 20.2117C0.100444 20.4078 0.171523 20.5952 0.281286 20.7599C0.500036 21.076 1.75129 22.6565 5.75004 22.6565C13.6524 22.6565 20.2641 16.6124 21.0188 8.80635L24.1775 5.6476C24.3613 5.46413 24.4865 5.23026 24.5373 4.9756C24.5882 4.72094 24.5623 4.45693 24.463 4.21698ZM18.8225 7.29151C18.5963 7.51678 18.4605 7.8172 18.4408 8.13588C18.0153 14.8067 12.4416 20.0315 5.75004 20.0315C5.29323 20.0342 4.83678 20.0053 4.38394 19.9451C5.53129 19.2167 6.81316 18.1798 7.71879 16.8224C7.81785 16.6739 7.88555 16.5066 7.91775 16.331C7.94994 16.1553 7.94595 15.9749 7.90602 15.8009C7.86609 15.6268 7.79106 15.4627 7.68552 15.3187C7.57998 15.1746 7.44615 15.0536 7.29222 14.9631C7.2791 14.9554 5.94363 14.1439 4.72957 12.2921C3.5155 10.4404 2.84175 8.24526 2.7105 5.75369C4.58738 7.16901 7.50004 8.96166 10.7813 9.51401C10.9696 9.54583 11.1625 9.53619 11.3467 9.48576C11.5308 9.43533 11.7018 9.34533 11.8476 9.22203C11.9934 9.09872 12.1105 8.9451 12.1908 8.77186C12.2711 8.59862 12.3127 8.40995 12.3125 8.21901V6.46901C12.3116 6.06024 12.3925 5.65542 12.5505 5.27841C12.7085 4.90141 12.9403 4.55984 13.2324 4.27385C13.5113 3.99484 13.8432 3.77438 14.2085 3.62543C14.5738 3.47649 14.9652 3.40205 15.3597 3.40651C15.9562 3.41449 16.5381 3.59148 17.038 3.91692C17.5378 4.24236 17.9352 4.70291 18.1838 5.2451C18.2861 5.47899 18.4544 5.67796 18.6681 5.81764C18.8818 5.95731 19.1316 6.03164 19.3869 6.03151H20.0782L18.8225 7.29151Z" fill="white"/>
</svg>
